<svg xmlns="http://www.w3.org/2000/svg" viewBox="0 0 784.69 286.4"><title>Asset 1</title><g id="Layer_2" data-name="Layer 2"><g id="Layer_1-2" data-name="Layer 1"><path d="M784.26,84.18l-.18-9c-.09-4.7-.19-9.45-1.37-14-.77-3-2.8-6.35-5.86-6.08a6.4,6.4,0,0,0-3.06,1.35c-5.15,3.61-8.45,9.27-12.17,14.23a203.94,203.94,0,0,0-12,17.35c-14.89,24.91-31.39,48.75-47.43,72.89-11.08,16.68-20.06,34.36-26,53.53a94.94,94.94,0,0,1-4.15,10.16,8.16,8.16,0,0,1-2.32,3.49,7,7,0,0,1-4.07.73c-.33,0-.79-1.74-.8-2.68a32.33,32.33,0,0,1,.39-5.47c2.21-13.56,4.21-27.16,6.77-40.65,3.86-20.29,8.29-40.44,14.48-60.19,4.3-13.74,8-27.69,11.6-41.61a62.15,62.15,0,0,0,1.78-13.32c.15-4.31-3-6.42-7.09-4.88a21.24,21.24,0,0,0-6.12,3.75c-10,8.61-17.46,19.17-23.23,31-.88,1.79-1.57,3.68-2.51,5.44-2.06,3.9-3.12,4.45-7.39,3.61a7.14,7.14,0,0,0-7.55,2.67c-.67.84-1.22,1.79-1.92,2.61-2.35,2.79-4.87,5.35-8.9,5.27-2.65,0-3.58-1-3.08-3.6a51.88,51.88,0,0,1,2.22-8.17c1.89-5.09,4.89-7,10.36-6.87a42.64,42.64,0,0,0,6,0A4.82,4.82,0,0,0,653.7,94a6.2,6.2,0,0,0-4.22-9.75c-5.64-1-12.33,3-14.64,8.28-1.68,3.85-4.12,7.36-5.94,11.17a15,15,0,0,0-1.81,6.51c.19,6.84-2.51,12.09-8.72,15a48,48,0,0,1-9.2,3.13c-8.61,2-17.36,2-26.1,1.09a80.34,80.34,0,0,1-10.59-1.74c-3.28-.78-4.41-2.52-4.08-5.87a29.8,29.8,0,0,1,1.33-6.34c2.17-6.56,4.7-13,6.7-19.61,2.87-9.47,4.94-19.2,8.16-28.54,5.07-14.71,10.78-29.2,16.28-43.76,1.74-4.6,4.69-7.64,10-8.06,3.32-.26,4.32-1.85,4.56-5.22,0-.75.08-1.5.06-2.25-.08-3.06-.23-6.36-3.57-7.6S606,1.44,604.16,4a131.21,131.21,0,0,0-8.95,13.52,271.74,271.74,0,0,0-22.19,54c-3.08,10.37-5.87,20.83-8.68,31.27a112.27,112.27,0,0,0-3,13.1c-1.27,8.84-1.32,9-9.83,11.41a23.76,23.76,0,0,0-5.92,2.38c-1.42.88-3.23,1.81-3.87,3.46a6.9,6.9,0,0,0-.31,2.26c0,1.67-.07,3.34,0,5,.15,2.89,1,5.67,1.13,8.54V149a31.64,31.64,0,0,0,0,4.13,30.13,30.13,0,0,0,1.57,6.25,16.59,16.59,0,0,0,7.83,9.23c4.1,2,8,.5,8.91-3.9s1.06-8.91,1.61-13.36c.41-3.21.74-6.45,1.44-9.6.75-3.36,3.19-5,6.58-5a29.29,29.29,0,0,1,7.44.64c12.51,3.35,24.82,3.27,37.09-1.21a12.16,12.16,0,0,1,12,1.9,9.43,9.43,0,0,0,11.07.47,32.07,32.07,0,0,0,7.74-6.22c5.25-6.23,10.37-12.61,15-19.29,5.24-7.53,7.93-16.4,13-24,3.65-5.48,9.34-14.58,15.91-16.8a1.78,1.78,0,0,1,1.3-.06,1.56,1.56,0,0,1,.68.81,13.81,13.81,0,0,1,.23,8.41c-6.5,15.9-12.66,31.82-17.83,48.2-6.35,20.12-11.66,40.48-13.7,61.58-2.59,26.9-3.65,53.86-3.82,80.86a77.43,77.43,0,0,0,.57,10.22c.39,3.06,2.3,4.28,5.51,4.15,2.71-.1,3.2-2.12,3.4-4.15.52-5.3,1.07-10.61,1.28-15.93.46-11.91,1.86-23.55,7.56-34.33s11.11-21.63,16.71-32.43c11-21.18,24-41.11,36.89-61.19,14.35-22.45,28.09-45.27,42.58-67.63a3.15,3.15,0,0,1,1.22-1.26c1.33-.59,2.65.84,3.29,2.15,3.81,7.84,2,17.07.88,25.71A226,226,0,0,0,775,132.42c.13,5.87.4,11.74.7,17.61.18,3.37-1,10.53,1.66,13.14,1.45,1.43,4.1.66,5.29-1s1.32-3.83,1.4-5.86C785,132.28,784.71,108.23,784.26,84.18ZM557.75,143.86c-.46,6.22-1.42,12.4-2.11,18.61a.41.41,0,0,1-.67.39c-4-1.51-5.12-6-6-9.67a56.54,56.54,0,0,1-1.21-11.09c-.08-1.86-.12-3.88,1-5.39,1.78-2.46,5.68-3,8.47-2.61a.92.92,0,0,1,.7.31.9.9,0,0,1,.12.53A85.48,85.48,0,0,1,557.75,143.86Z"/><path d="M505.18,136a18,18,0,0,0-2.75,0c-9.56.64-19.12,1.34-28.68,1.92q-8,.5-16,.66c-3.61.07-6.52-1.57-9-4.12-4.8-4.84-5.6-10.55-4-16.87,3.87-15.54,13.29-30.52,20.11-45a12.51,12.51,0,0,0,1.67-5.83c-.61-12.75-14.63,9.22-15.91,11.46-3.84,6.71-7,13.8-10.77,20.52-7.74,13.75-16.77,27.2-30.16,36a28.39,28.39,0,0,1-18,4.8c-3.21-.21-4.66-1.57-5-4.76a9.51,9.51,0,0,1,2.73-7.78q5.82-6.18,11.9-12.11a315.7,315.7,0,0,0,39.24-47.08c3.85-5.62,30.56-40.67,17.88-43.85-3.48-.87-7,.82-10.18,2.55-18.45,10.16-35.32,23.52-48.12,40.25-10.83,14.15-18.66,30.79-21.69,48.4-2.49,14.5-11.38,27.32-27.92,27.27-6.42,0-8.8-3.44-5.88-9,4.11-7.9,8.58-15.61,12.88-23.41,3.42-6.2,6.88-12.37,10.17-18.64a33.8,33.8,0,0,0,2.6-6.74c.76-2.72-1.16-5.49-3.34-5.22-4.19.54-8.58,4.62-9.56,8.72a23,23,0,0,1-1.7,4.68,208.78,208.78,0,0,1-20.95,33.7,54,54,0,0,1-15.29,13.85c-6.41,3.9-13.17,6.41-20.9,4.84-2.56-.52-4.18-1.87-4.41-4.38a109.89,109.89,0,0,1-.72-13.43c.23-7.24,3.45-13.62,6.45-20.06a128.7,128.7,0,0,0,6.64-16.57c.41-1.36.68-3.11-.46-4-1-.75-2.38-.34-3.52.15a50.37,50.37,0,0,0-8,4.29c-1.11.73-2.48,1.54-3.68,1A3.65,3.65,0,0,1,289.53,91c-2.22-3-3.65-5.54-7.52-6.45-10.47-2.46-20.34-.73-28.25,6.62-12.83,11.9-17,27.23-15.43,44.31a28,28,0,0,0,6.65,15.9,11.81,11.81,0,0,0,6.12,3.83c12.27,4.09,19.52-5.08,26.62-13.08,1.28-1.45,3-3,4.86-2.59a4,4,0,0,1,2.09,1.5c3.31,4.16,2,10.29,7.39,12.91a18.7,18.7,0,0,0,7.64,1.45c6.79.22,13.85-.61,20-3.62,4.42-2.17,7.23-7.58,11.95-9.15,7.33-2.43,7.46,6.76,12.56,9.62a11.4,11.4,0,0,0,8.61.61c9.09-2.6,16.06-12.33,26.2-11.19,1.81.21,4.12,1.14,5.11,2.52a13.07,13.07,0,0,0,12.61,5.63c11.89-1.25,21.36-6.91,27.95-17.11a18.73,18.73,0,0,1,3.71-4.32,4.68,4.68,0,0,1,7.31,1.24,18.6,18.6,0,0,1,2.09,5.29c1.57,6.59,5.51,10.68,12.18,12a29.89,29.89,0,0,0,5.42.89c6.41.11,12.82,0,19.23,0l0,.62c8.7-.81,17.41-1.57,26.11-2.48a23.23,23.23,0,0,0,5.8-1.43c2.57-1,3.59-3.45,2.86-6.44C508.88,135.8,506.85,136.18,505.18,136ZM386.72,109.31a39.94,39.94,0,0,1,2.95-8.2,188.44,188.44,0,0,1,42-56.06,81.84,81.84,0,0,1,10.22-7.57,15.43,15.43,0,0,1,4-1.48c1.28.15,1.86.19,2.43.29,2.48.42,2.82,1,1.45,3-2.77,4.16-5.55,8.32-8.56,12.3-12,16-24,31.95-36.36,47.7-3.81,4.89-8.45,9.16-13,13.46-1.14,1.08-3.23,1.16-4.88,1.69C386.89,112.75,386.34,110.92,386.72,109.31Zm-100.78,4.14c-3.44,13.17-10.36,23.88-22.88,30.27-.37.19-.74.39-1.11.57-6.56,3.11-10.78,1.34-12.79-5.61a76.41,76.41,0,0,1-1.55-8.21c1.33-13.9,5.39-25.87,16-34.72,4.27-3.57,9.59-4.11,14.88-3.89,4,.16,8.24,5.38,8.44,10.48A38.62,38.62,0,0,1,285.94,113.45Z"/><path d="M227,145.71a35.67,35.67,0,0,1-2.64-10.3c-.84-6.07-2.92-12.5-3.82-18.56-.56-3.82-5.57-14.47-3-18,3.42-4.7,9.63-7.4,13.38-11.81s8.8-8,12.72-12.49c1.17-1.36,2.33-2.93,2.29-4.72a3.89,3.89,0,0,0-.4-1.59c-.87-1.75-3-2.5-5-2.39-2.59.14-3.31,2-5,4-1.46,1.71-4.07,3.23-5.56,4.9a36.93,36.93,0,0,1-4.73,3.87c-3.77,3-8.36,8.18-12.76,9.91-1.41-2.68-1.74-6-2.53-8.91-.54-2-1.31-7.72-3.42-8.77s-4,0-5,3c-.89,2.67,5.28,21.88,3.75,18.72A17.94,17.94,0,0,0,202.56,95c-4.76,6.61-9.75,13.09-14.09,20-7.94,12.62-16.64,24.62-28.11,34.23-3.88,3.25-8.68,5.51-13.3,7.73-3.35,1.61-6,.66-7.92-2.57a11.92,11.92,0,0,1-1.8-6.51,37.06,37.06,0,0,1,2.48-10.36c3.75-9.43,9.3-17.83,15.41-25.9,3.62-4.78,7-9.73,10.44-14.65a23.89,23.89,0,0,0,2.81-5c.39-1,.43-2.69-.17-3.39A4.62,4.62,0,0,0,164.77,87a9.46,9.46,0,0,0-4.6,2.24,37.58,37.58,0,0,0-5.72,6.24c-5.16,7.3-9.93,15-15.34,22.08-5.29,6.94-9.22,14.73-15.28,21.08-5.73,6-14.21,9.81-21.28,14.12A15,15,0,0,1,97,155.23c-8,1.14-9-11.65-10.2-16.92-3.26-14.87,8.84-28.68,15.35-41,7.16-13.5,13.41-27.6,16.85-42.54.26-1.12.45-2.44-.32-3.3a3.66,3.66,0,0,0-2.63-.84c-4.57-.21-10,.28-12.35,4.17-1.52,2.49-1.3,5.6-1.29,8.51,0,11.33-5.4,20.24-10.68,29.82Q83.11,108.79,75.55,125c-5.84,12.4-16.15,22-24.2,33-8.42,11.54-19.42,19.51-32.59,25-5.26-5.34-7.35-9.11-8.28-14.78-2.34-14.27-.82-28.28,3.4-41.95,6-19.51,15.58-37.44,25.42-55.24a140.64,140.64,0,0,1,36-42.34,36.44,36.44,0,0,1,8.79-5.11c4.67-1.91,6.9-1,9.83,3.13s3.84,8.61,4.1,13.42a47.94,47.94,0,0,0,.61,6.7c.23,1.18,1.21,2.21,1.85,3.3.83-.92,2-1.72,2.42-2.8a33.7,33.7,0,0,0,1.87-7c1.39-9.35.2-17.88-7.58-24.54-3.87-3.32-7.8-3.83-12.49-2.24C74.09,17.2,65.63,24,58,31.93,37.07,54,22,79.69,10.47,107.65,3.66,124.22-.58,141.32.06,159.39.34,167.18,1.3,174.86,4.5,182c3.92,8.79,10,11.38,19.11,8.42a57,57,0,0,0,18.14-10.33,114.9,114.9,0,0,0,18.12-18.5c4.95-6.31,8.53-14.26,14.64-19.53a4.82,4.82,0,0,1,3.25-1.51,3.61,3.61,0,0,1,2.89,2.47,13.11,13.11,0,0,1,.57,3.95c.45,7,3.2,19.37,11.59,21a11.87,11.87,0,0,0,6.59-1c11.06-4.45,17.5-16.89,29.87-18.61.41,0,.92-.06,1.14.29a1.23,1.23,0,0,1,.1.69c-.24,3.48-.63,7-.63,10.47-.16,7.66,3.68,10.78,11.08,8.95,5.32-1.32,9.74-4.44,14.39-7.21a109.88,109.88,0,0,0,14.73-10c13.66-11.52,21.65-27.47,33.44-40.7,1.1-1.24,3.61-5.17,5-6-.19.11,2.95,14.45,3.08,15.39.71,5.1.93,10.25,1.66,15.34,1.66,11.67,7.56,24,20.06,26.9,1.91.45,4.15,1.12,5.53-.91s-.29-3.68-1.53-5C233.86,152.74,229.25,150.54,227,145.71Z"/></g></g></svg>